<svg id="Layer_1" data-name="Layer 1" xmlns="http://www.w3.org/2000/svg" xmlns:xlink="http://www.w3.org/1999/xlink" viewBox="0 0 570.11 215.15"><defs><style>.cls-1{fill:url(#linear-gradient);}.cls-2{fill:#fff;}.cls-3{fill:#f27036;}.cls-4{fill:#f9f0e8;}.cls-5{fill:#f4f0ef;}.cls-6{fill:#e5e5e5;}.cls-7{font-size:26.83px;font-family:CenturySchoolbook-Italic, Century Schoolbook;font-style:italic;}.cls-8{fill:#d35454;}.cls-9{font-size:98.51px;fill:#00292a;font-family:Alakita-Regular, Alakita;}.cls-10{letter-spacing:-0.11em;}.cls-11{letter-spacing:-0.01em;}.cls-12{letter-spacing:-0.04em;}.cls-13{letter-spacing:0em;}</style><linearGradient id="linear-gradient" x1="189.43" y1="-7.41" x2="63.66" y2="210.41" gradientUnits="userSpaceOnUse"><stop offset="0" stop-color="#d40041"/><stop offset="0.6" stop-color="#00292a"/><stop offset="1"/></linearGradient></defs><title>logo1</title><rect class="cls-1" width="253.09" height="203" rx="69.45" ry="69.45"/><path class="cls-2" d="M94.42,51.19H215a2.38,2.38,0,0,1,2.38,2.38v85a13.22,13.22,0,0,1-13.22,13.22H96.8a2.38,2.38,0,0,1-2.38-2.38V51.19A0,0,0,0,1,94.42,51.19Z"/><rect class="cls-3" x="592.02" y="500.85" width="23.83" height="90.41" transform="translate(-134.38 -685.46) rotate(26.23)"/><rect class="cls-4" x="618.97" y="479.82" width="23.83" height="22.69" rx="3.92" ry="3.92" transform="translate(-155.87 -703.03) rotate(26.23)"/><path class="cls-5" d="M650.7,632.82,595,655.52V556a1.74,1.74,0,0,1,1-1.56L652.9,527a1.73,1.73,0,0,1,2.47,1.56v97.32A7.49,7.49,0,0,1,650.7,632.82Z" transform="translate(-437.95 -474.75)"/><path class="cls-5" d="M532.38,631l-51.44,21a6.49,6.49,0,0,1-8.94-6v-82.8a13,13,0,0,1,7.36-11.72l53-25.52Z" transform="translate(-437.95 -474.75)"/><path class="cls-2" d="M37.71,80.26H156.61a.42.42,0,0,1,.42.42v99.79a.42.42,0,0,1-.42.42H43.11A9.07,9.07,0,0,1,34,171.82V83.92A3.66,3.66,0,0,1,37.71,80.26Z"/><path class="cls-6" d="M567.93,590.67l-114.39-2a3.23,3.23,0,0,1-2.47-5.24l21-26.28a5.67,5.67,0,0,1,4.43-2.13L595,554.89l-17.11,30.38A11.51,11.51,0,0,1,567.93,590.67Z" transform="translate(-437.95 -474.75)"/><text class="cls-7" transform="translate(41.12 144.55)">Text Box</text><rect x="47.46" y="151.81" width="42.49" height="4.47" rx="2.24" ry="2.24"/><rect x="47.46" y="160.76" width="64.85" height="4.47" rx="2.24" ry="2.24"/><rect x="47.46" y="169.01" width="41.63" height="5.16" rx="2.58" ry="2.58"/><path class="cls-6" d="M595,554.89l58.71-28.26a2.6,2.6,0,0,1,3,.5l16.38,16.38a5.22,5.22,0,0,1-.95,8.14l-44.86,27.6a10.45,10.45,0,0,1-13.46-2.15Z" transform="translate(-437.95 -474.75)"/><rect class="cls-8" x="612.73" y="500.71" width="24.31" height="5.54" transform="translate(-151.04 -699.11) rotate(26.23)"/><text class="cls-9" transform="translate(269.92 151.81)"><tspan class="cls-10">T</tspan><tspan class="cls-11" x="27.29" y="0">e</tspan><tspan x="62.65" y="0">xt </tspan><tspan class="cls-12" x="161.64" y="0">B</tspan><tspan class="cls-13" x="210.9" y="0">o</tspan><tspan x="250.4" y="0">x</tspan></text></svg>